solid Photo frame modern
facet normal 1.0 1.48787449460568e-016 -1.55899776305991e-015
outer loop
vertex 2.79411661979938e-016 45.0 2.0
vertex 1.48831564356695e-014 2.25597318603832e-014 5.0
vertex 1.48831564356695e-014 2.25597318603832e-014 2.0
endloop
endfacet
facet normal 1.0 1.48787449460568e-016 -1.55899776305991e-015
outer loop
vertex 1.48831564356695e-014 2.25597318603832e-014 5.0
vertex 2.79411661979938e-016 45.0 2.0
vertex 0.0 100.0 5.0
endloop
endfacet
facet normal 1.0 1.48787449460568e-016 -1.55899776305991e-015
outer loop
vertex 0.0 100.0 5.0
vertex 2.79411661979938e-016 45.0 2.0
vertex -2.19410414002445e-016 50.0 2.0
endloop
endfacet
facet normal 1.0 1.48787449460568e-016 -1.55899776305991e-015
outer loop
vertex 0.0 100.0 5.0
vertex -2.19410414002445e-016 50.0 2.0
vertex -1.12023304037191e-015 55.0 2.0
endloop
endfacet
facet normal 1.0 1.48787449460568e-016 -1.55899776305991e-015
outer loop
vertex 0.0 100.0 5.0
vertex -1.12023304037191e-015 55.0 2.0
vertex 0.0 100.0 2.0
endloop
endfacet
facet normal -1.0 -1.48831564356695e-016 0.0
outer loop
vertex 5.00000000000002 5.00000000000001 5.0
vertex 5.0 95.0 0.0
vertex 5.00000000000002 5.0 0.0
endloop
endfacet
facet normal -1.0 -1.48831564356695e-016 0.0
outer loop
vertex 5.0 95.0 0.0
vertex 5.00000000000002 5.00000000000001 5.0
vertex 5.0 95.0 5.0
endloop
endfacet
facet normal 1.0 1.52748184471345e-016 0.0
outer loop
vertex -9.99999999999999 110.0 0.0
vertex -9.99999999999998 -9.99999999999994 6.0
vertex -9.99999999999998 -9.99999999999994 0.0
endloop
endfacet
facet normal 1.0 1.52748184471345e-016 0.0
outer loop
vertex -9.99999999999998 -9.99999999999994 6.0
vertex -9.99999999999999 110.0 0.0
vertex -9.99999999999999 110.0 6.0
endloop
endfacet
facet normal -0.371390676354104 -5.26604194477264e-017 -0.928476690885259
outer loop
vertex -9.99999999999999 110.0 6.0
vertex -7.67880827278684 104.267367076682 5.07152330911474
vertex -9.99999999999998 -9.99999999999994 6.0
endloop
endfacet
facet normal -0.371390676354104 -5.26604194477264e-017 -0.928476690885259
outer loop
vertex -7.67880827278684 104.267367076682 5.07152330911474
vertex -9.99999999999999 110.0 6.0
vertex 0.0 100.0 2.0
endloop
endfacet
facet normal -0.371390676354104 -5.26604194477264e-017 -0.928476690885259
outer loop
vertex -7.67880827278684 104.267367076682 5.07152330911474
vertex 0.0 100.0 2.0
vertex -2.32119172721315 98.9097505311081 2.92847669088526
endloop
endfacet
facet normal -0.371390676354104 -5.26604194477264e-017 -0.928476690885259
outer loop
vertex -2.32119172721315 98.9097505311081 2.92847669088526
vertex 0.0 100.0 2.0
vertex -2.32119172721313 1.09024946889194 2.92847669088526
endloop
endfacet
facet normal -0.371390676354104 -5.26604194477264e-017 -0.928476690885259
outer loop
vertex -2.32119172721313 1.09024946889194 2.92847669088526
vertex 0.0 100.0 2.0
vertex -1.12023304037191e-015 55.0 2.0
endloop
endfacet
facet normal -0.371390676354104 -5.26604194477264e-017 -0.928476690885259
outer loop
vertex -9.99999999999998 -9.99999999999994 6.0
vertex -7.67880827278683 -4.26736707668174 5.07152330911474
vertex 1.48831564356695e-014 2.25597318603832e-014 2.0
endloop
endfacet
facet normal -0.371390676354104 -5.26604194477264e-017 -0.928476690885259
outer loop
vertex -7.67880827278683 -4.26736707668174 5.07152330911474
vertex -9.99999999999998 -9.99999999999994 6.0
vertex -7.67880827278684 104.267367076682 5.07152330911474
endloop
endfacet
facet normal -0.371390676354104 -5.26604194477264e-017 -0.928476690885259
outer loop
vertex 1.48831564356695e-014 2.25597318603832e-014 2.0
vertex -7.67880827278683 -4.26736707668174 5.07152330911474
vertex -2.32119172721313 1.09024946889194 2.92847669088526
endloop
endfacet
facet normal -0.371390676354104 -5.26604194477264e-017 -0.928476690885259
outer loop
vertex 1.48831564356695e-014 2.25597318603832e-014 2.0
vertex -2.32119172721313 1.09024946889194 2.92847669088526
vertex 2.79411661979938e-016 45.0 2.0
endloop
endfacet
facet normal -0.371390676354104 -5.26604194477264e-017 -0.928476690885259
outer loop
vertex 2.79411661979938e-016 45.0 2.0
vertex -2.32119172721313 1.09024946889194 2.92847669088526
vertex -1.12023304037191e-015 55.0 2.0
endloop
endfacet
facet normal -0.371390676354104 -5.26604194477264e-017 -0.928476690885259
outer loop
vertex 2.79411661979938e-016 45.0 2.0
vertex -1.12023304037191e-015 55.0 2.0
vertex -2.19410414002445e-016 50.0 2.0
endloop
endfacet
facet normal -6.84283871973114e-020 0.999993633523209 -0.00356832076058926
outer loop
vertex 1.48831564356695e-014 2.25597318603832e-014 5.0
vertex 70.0 -0.0178417173918037 2.0
vertex 1.48831564356695e-014 2.25597318603832e-014 2.0
endloop
endfacet
facet normal -6.84283871973114e-020 0.999993633523209 -0.00356832076058926
outer loop
vertex 70.0 -0.0178417173918037 2.0
vertex 1.48831564356695e-014 2.25597318603832e-014 5.0
vertex 75.0 -0.0178417173918033 2.0
endloop
endfacet
facet normal -6.84283871973114e-020 0.999993633523209 -0.00356832076058926
outer loop
vertex 75.0 -0.0178417173918033 2.0
vertex 1.48831564356695e-014 2.25597318603832e-014 5.0
vertex 80.0 -0.0178417173918033 2.0
endloop
endfacet
facet normal -6.84283871973114e-020 0.999993633523209 -0.00356832076058926
outer loop
vertex 80.0 -0.0178417173918033 2.0
vertex 1.48831564356695e-014 2.25597318603832e-014 5.0
vertex 150.0 2.25597318603832e-014 2.0
endloop
endfacet
facet normal -6.84283871973114e-020 0.999993633523209 -0.00356832076058926
outer loop
vertex 150.0 2.25597318603832e-014 2.0
vertex 1.48831564356695e-014 2.25597318603832e-014 5.0
vertex 150.0 2.25597318603832e-014 5.0
endloop
endfacet
facet normal 0.0 -1.0 0.0
outer loop
vertex 145.0 5.00000000000001 5.0
vertex 5.00000000000002 5.0 0.0
vertex 145.0 5.0 0.0
endloop
endfacet
facet normal 0.0 -1.0 0.0
outer loop
vertex 5.00000000000002 5.0 0.0
vertex 145.0 5.00000000000001 5.0
vertex 5.00000000000002 5.00000000000001 5.0
endloop
endfacet
facet normal 0.0 1.0 0.0
outer loop
vertex -9.99999999999998 -9.99999999999994 6.0
vertex 160.0 -9.99999999999994 0.0
vertex -9.99999999999998 -9.99999999999994 0.0
endloop
endfacet
facet normal 0.0 1.0 0.0
outer loop
vertex 160.0 -9.99999999999994 0.0
vertex -9.99999999999998 -9.99999999999994 6.0
vertex 160.0 -9.99999999999994 6.0
endloop
endfacet
facet normal 5.19773289401997e-019 -0.371732846030871 -0.928339749866281
outer loop
vertex 1.48831564356695e-014 2.25597318603832e-014 2.0
vertex -4.26736707668176 -7.67880827278679 5.07152330911474
vertex -9.99999999999998 -9.99999999999994 6.0
endloop
endfacet
facet normal 5.19773289401997e-019 -0.371732846030871 -0.928339749866281
outer loop
vertex -4.26736707668176 -7.67880827278679 5.07152330911474
vertex 1.48831564356695e-014 2.25597318603832e-014 2.0
vertex 1.09024946889192 -2.32119172721313 2.92847669088526
endloop
endfacet
facet normal 5.19773289401997e-019 -0.371732846030871 -0.928339749866281
outer loop
vertex 1.09024946889192 -2.32119172721313 2.92847669088526
vertex 1.48831564356695e-014 2.25597318603832e-014 2.0
vertex 70.0 -0.0178417173918037 2.0
endloop
endfacet
facet normal 5.19773289401997e-019 -0.371732846030871 -0.928339749866281
outer loop
vertex 1.09024946889192 -2.32119172721313 2.92847669088526
vertex 70.0 -0.0178417173918037 2.0
vertex 148.909750531108 -2.32119172721312 2.92847669088526
endloop
endfacet
facet normal 5.19773289401997e-019 -0.371732846030871 -0.928339749866281
outer loop
vertex 148.909750531108 -2.32119172721312 2.92847669088526
vertex 70.0 -0.0178417173918037 2.0
vertex 75.0 -0.0178417173918033 2.0
endloop
endfacet
facet normal 5.19773289401997e-019 -0.371732846030871 -0.928339749866281
outer loop
vertex 148.909750531108 -2.32119172721312 2.92847669088526
vertex 75.0 -0.0178417173918033 2.0
vertex 80.0 -0.0178417173918033 2.0
endloop
endfacet
facet normal 5.19773289401997e-019 -0.371732846030871 -0.928339749866281
outer loop
vertex 148.909750531108 -2.32119172721312 2.92847669088526
vertex 80.0 -0.0178417173918033 2.0
vertex 150.0 2.25597318603832e-014 2.0
endloop
endfacet
facet normal 5.19773289401997e-019 -0.371732846030871 -0.928339749866281
outer loop
vertex 148.909750531108 -2.32119172721312 2.92847669088526
vertex 150.0 2.25597318603832e-014 2.0
vertex 154.267367076682 -7.67880827278676 5.07152330911473
endloop
endfacet
facet normal 5.19773289401997e-019 -0.371732846030871 -0.928339749866281
outer loop
vertex 154.267367076682 -7.67880827278676 5.07152330911473
vertex 150.0 2.25597318603832e-014 2.0
vertex 160.0 -9.99999999999994 6.0
endloop
endfacet
facet normal 5.19773289401997e-019 -0.371732846030871 -0.928339749866281
outer loop
vertex -4.26736707668176 -7.67880827278679 5.07152330911474
vertex 160.0 -9.99999999999994 6.0
vertex -9.99999999999998 -9.99999999999994 6.0
endloop
endfacet
facet normal 5.19773289401997e-019 -0.371732846030871 -0.928339749866281
outer loop
vertex 160.0 -9.99999999999994 6.0
vertex -4.26736707668176 -7.67880827278679 5.07152330911474
vertex 154.267367076682 -7.67880827278676 5.07152330911473
endloop
endfacet
facet normal -1.0 3.03427432653282e-032 -4.51194637207664e-015
outer loop
vertex 150.0 100.0 5.0
vertex 150.0 2.25597318603832e-014 2.0
vertex 150.0 2.25597318603832e-014 5.0
endloop
endfacet
facet normal -1.0 3.03427432653282e-032 -4.51194637207664e-015
outer loop
vertex 150.0 2.25597318603832e-014 2.0
vertex 150.0 100.0 5.0
vertex 150.0 45.0 2.0
endloop
endfacet
facet normal -1.0 3.03427432653282e-032 -4.51194637207664e-015
outer loop
vertex 150.0 45.0 2.0
vertex 150.0 100.0 5.0
vertex 150.0 50.0 2.0
endloop
endfacet
facet normal -1.0 3.03427432653282e-032 -4.51194637207664e-015
outer loop
vertex 150.0 50.0 2.0
vertex 150.0 100.0 5.0
vertex 150.0 55.0 2.0
endloop
endfacet
facet normal -1.0 3.03427432653282e-032 -4.51194637207664e-015
outer loop
vertex 150.0 55.0 2.0
vertex 150.0 100.0 5.0
vertex 150.0 100.0 2.0
endloop
endfacet
facet normal 1.0 0.0 0.0
outer loop
vertex 145.0 95.0 0.0
vertex 145.0 5.00000000000001 5.0
vertex 145.0 5.0 0.0
endloop
endfacet
facet normal 1.0 0.0 0.0
outer loop
vertex 145.0 5.00000000000001 5.0
vertex 145.0 95.0 0.0
vertex 145.0 95.0 5.0
endloop
endfacet
facet normal -1.0 0.0 0.0
outer loop
vertex 160.0 110.0 6.0
vertex 160.0 -9.99999999999994 0.0
vertex 160.0 -9.99999999999994 6.0
endloop
endfacet
facet normal -1.0 0.0 0.0
outer loop
vertex 160.0 -9.99999999999994 0.0
vertex 160.0 110.0 6.0
vertex 160.0 110.0 0.0
endloop
endfacet
facet normal 0.371390676354106 7.89380294327629e-032 -0.928476690885259
outer loop
vertex 150.0 100.0 2.0
vertex 152.321191727213 98.909750531108 2.92847669088526
vertex 150.0 55.0 2.0
endloop
endfacet
facet normal 0.371390676354106 7.89380294327629e-032 -0.928476690885259
outer loop
vertex 152.321191727213 98.909750531108 2.92847669088526
vertex 150.0 100.0 2.0
vertex 160.0 110.0 6.0
endloop
endfacet
facet normal 0.371390676354106 7.89380294327629e-032 -0.928476690885259
outer loop
vertex 150.0 55.0 2.0
vertex 152.321191727213 98.909750531108 2.92847669088526
vertex 150.0 50.0 2.0
endloop
endfacet
facet normal 0.371390676354106 7.89380294327629e-032 -0.928476690885259
outer loop
vertex 150.0 50.0 2.0
vertex 152.321191727213 98.909750531108 2.92847669088526
vertex 150.0 45.0 2.0
endloop
endfacet
facet normal 0.371390676354106 7.89380294327629e-032 -0.928476690885259
outer loop
vertex 152.321191727213 98.909750531108 2.92847669088526
vertex 160.0 110.0 6.0
vertex 157.678808272787 104.267367076682 5.07152330911474
endloop
endfacet
facet normal 0.371390676354106 7.89380294327629e-032 -0.928476690885259
outer loop
vertex 157.678808272787 104.267367076682 5.07152330911474
vertex 160.0 110.0 6.0
vertex 157.678808272787 -4.26736707668172 5.07152330911474
endloop
endfacet
facet normal 0.371390676354106 7.89380294327629e-032 -0.928476690885259
outer loop
vertex 150.0 2.25597318603832e-014 2.0
vertex 152.321191727213 1.09024946889195 2.92847669088526
vertex 160.0 -9.99999999999994 6.0
endloop
endfacet
facet normal 0.371390676354106 7.89380294327629e-032 -0.928476690885259
outer loop
vertex 152.321191727213 1.09024946889195 2.92847669088526
vertex 150.0 2.25597318603832e-014 2.0
vertex 150.0 45.0 2.0
endloop
endfacet
facet normal 0.371390676354106 7.89380294327629e-032 -0.928476690885259
outer loop
vertex 152.321191727213 1.09024946889195 2.92847669088526
vertex 150.0 45.0 2.0
vertex 152.321191727213 98.909750531108 2.92847669088526
endloop
endfacet
facet normal 0.371390676354106 7.89380294327629e-032 -0.928476690885259
outer loop
vertex 160.0 -9.99999999999994 6.0
vertex 152.321191727213 1.09024946889195 2.92847669088526
vertex 157.678808272787 -4.26736707668172 5.07152330911474
endloop
endfacet
facet normal 0.371390676354106 7.89380294327629e-032 -0.928476690885259
outer loop
vertex 160.0 -9.99999999999994 6.0
vertex 157.678808272787 -4.26736707668172 5.07152330911474
vertex 160.0 110.0 6.0
endloop
endfacet
facet normal -3.00796424805109e-016 -1.0 7.08739741296065e-046
outer loop
vertex 150.0 100.0 5.0
vertex 75.0 100.0 2.0
vertex 150.0 100.0 2.0
endloop
endfacet
facet normal -3.00796424805109e-016 -1.0 7.08739741296065e-046
outer loop
vertex 75.0 100.0 2.0
vertex 150.0 100.0 5.0
vertex 0.0 100.0 2.0
endloop
endfacet
facet normal -3.00796424805109e-016 -1.0 7.08739741296065e-046
outer loop
vertex 0.0 100.0 2.0
vertex 150.0 100.0 5.0
vertex 0.0 100.0 5.0
endloop
endfacet
facet normal -3.00796424805109e-016 -1.0 7.08739741296065e-046
outer loop
vertex 0.0 100.0 5.0
vertex 150.0 100.0 5.0
vertex 75.0 100.0 5.0
endloop
endfacet
facet normal 2.4171141278982e-016 1.0 -0.0
outer loop
vertex 5.0 95.0 5.0
vertex 75.0 95.0 0.0
vertex 5.0 95.0 0.0
endloop
endfacet
facet normal 2.4171141278982e-016 1.0 -0.0
outer loop
vertex 75.0 95.0 0.0
vertex 5.0 95.0 5.0
vertex 145.0 95.0 0.0
endloop
endfacet
facet normal 2.4171141278982e-016 1.0 -0.0
outer loop
vertex 145.0 95.0 0.0
vertex 5.0 95.0 5.0
vertex 145.0 95.0 5.0
endloop
endfacet
facet normal 2.4171141278982e-016 1.0 -0.0
outer loop
vertex 145.0 95.0 5.0
vertex 5.0 95.0 5.0
vertex 75.0 95.0 5.0
endloop
endfacet
facet normal -7.96225830366465e-016 -1.0 0.0
outer loop
vertex 160.0 110.0 6.0
vertex 75.0 110.0 0.0
vertex 160.0 110.0 0.0
endloop
endfacet
facet normal -7.96225830366465e-016 -1.0 0.0
outer loop
vertex 75.0 110.0 0.0
vertex 160.0 110.0 6.0
vertex -9.99999999999999 110.0 0.0
endloop
endfacet
facet normal -7.96225830366465e-016 -1.0 0.0
outer loop
vertex -9.99999999999999 110.0 0.0
vertex 160.0 110.0 6.0
vertex -9.99999999999999 110.0 6.0
endloop
endfacet
facet normal -7.96225830366465e-016 -1.0 0.0
outer loop
vertex -9.99999999999999 110.0 6.0
vertex 160.0 110.0 6.0
vertex 75.0 110.0 6.0
endloop
endfacet
facet normal 2.14132973400125e-016 0.371390676354105 -0.928476690885259
outer loop
vertex 75.0 110.0 6.0
vertex -4.26736707668178 107.678808272787 5.07152330911474
vertex -9.99999999999999 110.0 6.0
endloop
endfacet
facet normal 2.14132973400125e-016 0.371390676354105 -0.928476690885259
outer loop
vertex -4.26736707668178 107.678808272787 5.07152330911474
vertex 75.0 110.0 6.0
vertex 75.0 107.678808272787 5.07152330911474
endloop
endfacet
facet normal 2.14132973400125e-016 0.371390676354105 -0.928476690885259
outer loop
vertex 75.0 107.678808272787 5.07152330911474
vertex 75.0 110.0 6.0
vertex 160.0 110.0 6.0
endloop
endfacet
facet normal 2.14132973400125e-016 0.371390676354105 -0.928476690885259
outer loop
vertex 75.0 107.678808272787 5.07152330911474
vertex 160.0 110.0 6.0
vertex 154.267367076682 107.678808272787 5.07152330911474
endloop
endfacet
facet normal 2.14132973400125e-016 0.371390676354105 -0.928476690885259
outer loop
vertex -4.26736707668178 107.678808272787 5.07152330911474
vertex 0.0 100.0 2.0
vertex -9.99999999999999 110.0 6.0
endloop
endfacet
facet normal 2.14132973400125e-016 0.371390676354105 -0.928476690885259
outer loop
vertex 0.0 100.0 2.0
vertex -4.26736707668178 107.678808272787 5.07152330911474
vertex 1.09024946889191 102.321191727213 2.92847669088526
endloop
endfacet
facet normal 2.14132973400125e-016 0.371390676354105 -0.928476690885259
outer loop
vertex 0.0 100.0 2.0
vertex 1.09024946889191 102.321191727213 2.92847669088526
vertex 75.0 100.0 2.0
endloop
endfacet
facet normal 2.14132973400125e-016 0.371390676354105 -0.928476690885259
outer loop
vertex 75.0 100.0 2.0
vertex 1.09024946889191 102.321191727213 2.92847669088526
vertex 75.0 102.321191727213 2.92847669088526
endloop
endfacet
facet normal 2.14132973400125e-016 0.371390676354105 -0.928476690885259
outer loop
vertex 75.0 100.0 2.0
vertex 75.0 102.321191727213 2.92847669088526
vertex 148.909750531108 102.321191727213 2.92847669088527
endloop
endfacet
facet normal 2.14132973400125e-016 0.371390676354105 -0.928476690885259
outer loop
vertex 75.0 100.0 2.0
vertex 148.909750531108 102.321191727213 2.92847669088527
vertex 150.0 100.0 2.0
endloop
endfacet
facet normal 2.14132973400125e-016 0.371390676354105 -0.928476690885259
outer loop
vertex 150.0 100.0 2.0
vertex 148.909750531108 102.321191727213 2.92847669088527
vertex 154.267367076682 107.678808272787 5.07152330911474
endloop
endfacet
facet normal 2.14132973400125e-016 0.371390676354105 -0.928476690885259
outer loop
vertex 150.0 100.0 2.0
vertex 154.267367076682 107.678808272787 5.07152330911474
vertex 160.0 110.0 6.0
endloop
endfacet
facet normal 0.0 0.0 -1.0
outer loop
vertex 0.0 100.0 5.0
vertex 5.0 95.0 5.0
vertex 1.48831564356695e-014 2.25597318603832e-014 5.0
endloop
endfacet
facet normal 0.0 0.0 -1.0
outer loop
vertex 5.0 95.0 5.0
vertex 0.0 100.0 5.0
vertex 75.0 100.0 5.0
endloop
endfacet
facet normal 0.0 0.0 -1.0
outer loop
vertex 5.0 95.0 5.0
vertex 75.0 100.0 5.0
vertex 75.0 95.0 5.0
endloop
endfacet
facet normal 0.0 0.0 -1.0
outer loop
vertex 75.0 95.0 5.0
vertex 75.0 100.0 5.0
vertex 150.0 100.0 5.0
endloop
endfacet
facet normal 0.0 0.0 -1.0
outer loop
vertex 75.0 95.0 5.0
vertex 150.0 100.0 5.0
vertex 145.0 95.0 5.0
endloop
endfacet
facet normal 0.0 0.0 -1.0
outer loop
vertex 145.0 95.0 5.0
vertex 150.0 100.0 5.0
vertex 145.0 5.00000000000001 5.0
endloop
endfacet
facet normal 0.0 0.0 -1.0
outer loop
vertex 1.48831564356695e-014 2.25597318603832e-014 5.0
vertex 5.00000000000002 5.00000000000001 5.0
vertex 150.0 2.25597318603832e-014 5.0
endloop
endfacet
facet normal 0.0 0.0 -1.0
outer loop
vertex 5.00000000000002 5.00000000000001 5.0
vertex 1.48831564356695e-014 2.25597318603832e-014 5.0
vertex 5.0 95.0 5.0
endloop
endfacet
facet normal 0.0 0.0 -1.0
outer loop
vertex 150.0 2.25597318603832e-014 5.0
vertex 5.00000000000002 5.00000000000001 5.0
vertex 145.0 5.00000000000001 5.0
endloop
endfacet
facet normal 0.0 0.0 -1.0
outer loop
vertex 150.0 2.25597318603832e-014 5.0
vertex 145.0 5.00000000000001 5.0
vertex 150.0 100.0 5.0
endloop
endfacet
facet normal -0.0 -0.0 1.0
outer loop
vertex 5.00000000000002 5.0 0.0
vertex 70.0 1.9821582826082 0.0
vertex 145.0 5.0 0.0
endloop
endfacet
facet normal -0.0 -0.0 1.0
outer loop
vertex 70.0 1.9821582826082 0.0
vertex 5.00000000000002 5.0 0.0
vertex 70.0 -0.0178417173918037 0.0
endloop
endfacet
facet normal -0.0 -0.0 1.0
outer loop
vertex 145.0 5.0 0.0
vertex 70.0 1.9821582826082 0.0
vertex 80.0 1.9821582826082 0.0
endloop
endfacet
facet normal -0.0 -0.0 1.0
outer loop
vertex -9.99999999999999 110.0 0.0
vertex 30.0 105.0 0.0
vertex 75.0 110.0 0.0
endloop
endfacet
facet normal -0.0 -0.0 1.0
outer loop
vertex 30.0 105.0 0.0
vertex -9.99999999999999 110.0 0.0
vertex 5.0 95.0 0.0
endloop
endfacet
facet normal -0.0 -0.0 1.0
outer loop
vertex 5.0 95.0 0.0
vertex -9.99999999999999 110.0 0.0
vertex -2.0 55.0 0.0
endloop
endfacet
facet normal -0.0 -0.0 1.0
outer loop
vertex -2.0 55.0 0.0
vertex -9.99999999999999 110.0 0.0
vertex -9.99999999999998 -9.99999999999994 0.0
endloop
endfacet
facet normal -0.0 -0.0 1.0
outer loop
vertex -2.0 55.0 0.0
vertex -9.99999999999998 -9.99999999999994 0.0
vertex -2.0 45.0 0.0
endloop
endfacet
facet normal -0.0 -0.0 1.0
outer loop
vertex 5.0 95.0 0.0
vertex -2.0 55.0 0.0
vertex -1.12023304037191e-015 55.0 0.0
endloop
endfacet
facet normal -0.0 -0.0 1.0
outer loop
vertex 5.0 95.0 0.0
vertex -1.12023304037191e-015 55.0 0.0
vertex -2.19410414002445e-016 50.0 0.0
endloop
endfacet
facet normal -0.0 -0.0 1.0
outer loop
vertex 5.0 95.0 0.0
vertex -2.19410414002445e-016 50.0 0.0
vertex 2.79411661979938e-016 45.0 0.0
endloop
endfacet
facet normal -0.0 -0.0 1.0
outer loop
vertex 30.0 105.0 0.0
vertex 5.0 95.0 0.0
vertex 30.0 103.0 0.0
endloop
endfacet
facet normal -0.0 -0.0 1.0
outer loop
vertex 75.0 110.0 0.0
vertex 30.0 105.0 0.0
vertex 35.0 105.0 0.0
endloop
endfacet
facet normal -0.0 -0.0 1.0
outer loop
vertex 75.0 110.0 0.0
vertex 35.0 105.0 0.0
vertex 40.0 105.0 0.0
endloop
endfacet
facet normal -0.0 -0.0 1.0
outer loop
vertex 75.0 110.0 0.0
vertex 40.0 105.0 0.0
vertex 75.0 95.0 0.0
endloop
endfacet
facet normal -0.0 -0.0 1.0
outer loop
vertex 75.0 110.0 0.0
vertex 75.0 95.0 0.0
vertex 145.0 95.0 0.0
endloop
endfacet
facet normal -0.0 -0.0 1.0
outer loop
vertex 75.0 110.0 0.0
vertex 145.0 95.0 0.0
vertex 110.0 103.0 0.0
endloop
endfacet
facet normal -0.0 -0.0 1.0
outer loop
vertex 110.0 103.0 0.0
vertex 145.0 95.0 0.0
vertex 120.0 103.0 0.0
endloop
endfacet
facet normal -0.0 -0.0 1.0
outer loop
vertex 120.0 103.0 0.0
vertex 145.0 95.0 0.0
vertex 120.0 105.0 0.0
endloop
endfacet
facet normal -0.0 -0.0 1.0
outer loop
vertex -9.99999999999998 -9.99999999999994 0.0
vertex 5.00000000000002 5.0 0.0
vertex -2.0 45.0 0.0
endloop
endfacet
facet normal -0.0 -0.0 1.0
outer loop
vertex 5.00000000000002 5.0 0.0
vertex -9.99999999999998 -9.99999999999994 0.0
vertex 160.0 -9.99999999999994 0.0
endloop
endfacet
facet normal -0.0 -0.0 1.0
outer loop
vertex -2.0 45.0 0.0
vertex 5.00000000000002 5.0 0.0
vertex 2.79411661979938e-016 45.0 0.0
endloop
endfacet
facet normal -0.0 -0.0 1.0
outer loop
vertex 2.79411661979938e-016 45.0 0.0
vertex 5.00000000000002 5.0 0.0
vertex 5.0 95.0 0.0
endloop
endfacet
facet normal -0.0 -0.0 1.0
outer loop
vertex 5.00000000000002 5.0 0.0
vertex 160.0 -9.99999999999994 0.0
vertex 70.0 -0.0178417173918037 0.0
endloop
endfacet
facet normal -0.0 -0.0 1.0
outer loop
vertex 70.0 -0.0178417173918037 0.0
vertex 160.0 -9.99999999999994 0.0
vertex 75.0 -0.0178417173918033 0.0
endloop
endfacet
facet normal -0.0 -0.0 1.0
outer loop
vertex 75.0 -0.0178417173918033 0.0
vertex 160.0 -9.99999999999994 0.0
vertex 80.0 -0.0178417173918033 0.0
endloop
endfacet
facet normal -0.0 -0.0 1.0
outer loop
vertex 80.0 -0.0178417173918033 0.0
vertex 160.0 -9.99999999999994 0.0
vertex 80.0 1.9821582826082 0.0
endloop
endfacet
facet normal -0.0 -0.0 1.0
outer loop
vertex 80.0 1.9821582826082 0.0
vertex 160.0 -9.99999999999994 0.0
vertex 145.0 5.0 0.0
endloop
endfacet
facet normal -0.0 -0.0 1.0
outer loop
vertex 145.0 5.0 0.0
vertex 160.0 -9.99999999999994 0.0
vertex 150.0 45.0 0.0
endloop
endfacet
facet normal -0.0 -0.0 1.0
outer loop
vertex 145.0 5.0 0.0
vertex 150.0 45.0 0.0
vertex 145.0 95.0 0.0
endloop
endfacet
facet normal -0.0 -0.0 1.0
outer loop
vertex 150.0 45.0 0.0
vertex 160.0 -9.99999999999994 0.0
vertex 152.0 45.0 0.0
endloop
endfacet
facet normal -0.0 -0.0 1.0
outer loop
vertex 152.0 45.0 0.0
vertex 160.0 -9.99999999999994 0.0
vertex 152.0 55.0 0.0
endloop
endfacet
facet normal -0.0 -0.0 1.0
outer loop
vertex 75.0 110.0 0.0
vertex 110.0 105.0 0.0
vertex 160.0 110.0 0.0
endloop
endfacet
facet normal -0.0 -0.0 1.0
outer loop
vertex 110.0 105.0 0.0
vertex 75.0 110.0 0.0
vertex 110.0 103.0 0.0
endloop
endfacet
facet normal -0.0 -0.0 1.0
outer loop
vertex 160.0 110.0 0.0
vertex 110.0 105.0 0.0
vertex 115.0 105.0 0.0
endloop
endfacet
facet normal -0.0 -0.0 1.0
outer loop
vertex 160.0 110.0 0.0
vertex 115.0 105.0 0.0
vertex 120.0 105.0 0.0
endloop
endfacet
facet normal -0.0 -0.0 1.0
outer loop
vertex 160.0 110.0 0.0
vertex 120.0 105.0 0.0
vertex 145.0 95.0 0.0
endloop
endfacet
facet normal -0.0 -0.0 1.0
outer loop
vertex 160.0 110.0 0.0
vertex 145.0 95.0 0.0
vertex 150.0 55.0 0.0
endloop
endfacet
facet normal -0.0 -0.0 1.0
outer loop
vertex 150.0 55.0 0.0
vertex 145.0 95.0 0.0
vertex 150.0 45.0 0.0
endloop
endfacet
facet normal -0.0 -0.0 1.0
outer loop
vertex 150.0 55.0 0.0
vertex 150.0 45.0 0.0
vertex 150.0 50.0 0.0
endloop
endfacet
facet normal -0.0 -0.0 1.0
outer loop
vertex 160.0 110.0 0.0
vertex 150.0 55.0 0.0
vertex 152.0 55.0 0.0
endloop
endfacet
facet normal -0.0 -0.0 1.0
outer loop
vertex 160.0 110.0 0.0
vertex 152.0 55.0 0.0
vertex 160.0 -9.99999999999994 0.0
endloop
endfacet
facet normal -0.0 -0.0 1.0
outer loop
vertex 75.0 95.0 0.0
vertex 30.0 103.0 0.0
vertex 5.0 95.0 0.0
endloop
endfacet
facet normal -0.0 -0.0 1.0
outer loop
vertex 30.0 103.0 0.0
vertex 75.0 95.0 0.0
vertex 40.0 103.0 0.0
endloop
endfacet
facet normal -0.0 -0.0 1.0
outer loop
vertex 40.0 103.0 0.0
vertex 75.0 95.0 0.0
vertex 40.0 105.0 0.0
endloop
endfacet
facet normal 2.2562552439858e-016 0.371390676354105 -0.928476690885259
outer loop
vertex 75.0 108.050198949141 4.14304661822948
vertex 1.09024946889191 102.692582403567 2.0
vertex -4.26736707668178 108.050198949141 4.14304661822948
endloop
endfacet
facet normal 2.2562552439858e-016 0.371390676354105 -0.928476690885259
outer loop
vertex 1.09024946889191 102.692582403567 2.0
vertex 75.0 108.050198949141 4.14304661822948
vertex 75.0 102.692582403567 2.0
endloop
endfacet
facet normal 2.2562552439858e-016 0.371390676354105 -0.928476690885259
outer loop
vertex 75.0 102.692582403567 2.0
vertex 75.0 108.050198949141 4.14304661822948
vertex 154.267367076682 108.050198949141 4.14304661822948
endloop
endfacet
facet normal 2.2562552439858e-016 0.371390676354105 -0.928476690885259
outer loop
vertex 75.0 102.692582403567 2.0
vertex 154.267367076682 108.050198949141 4.14304661822948
vertex 148.909750531108 102.692582403567 2.00000000000001
endloop
endfacet
facet normal -5.34921634189838e-016 -0.928476690885259 -0.371390676354105
outer loop
vertex 148.909750531108 102.692582403567 2.00000000000001
vertex 75.0 102.321191727213 2.92847669088526
vertex 75.0 102.692582403567 2.0
endloop
endfacet
facet normal -5.34921634189838e-016 -0.928476690885259 -0.371390676354105
outer loop
vertex 75.0 102.321191727213 2.92847669088526
vertex 148.909750531108 102.692582403567 2.00000000000001
vertex 148.909750531108 102.321191727213 2.92847669088527
endloop
endfacet
facet normal -0.0 -0.928476690885259 -0.371390676354105
outer loop
vertex 75.0 102.321191727213 2.92847669088526
vertex 1.09024946889191 102.692582403567 2.0
vertex 75.0 102.692582403567 2.0
endloop
endfacet
facet normal -0.0 -0.928476690885259 -0.371390676354105
outer loop
vertex 1.09024946889191 102.692582403567 2.0
vertex 75.0 102.321191727213 2.92847669088526
vertex 1.09024946889191 102.321191727213 2.92847669088526
endloop
endfacet
facet normal -0.732828108792941 -0.631748369649085 -0.252699347859635
outer loop
vertex -4.26736707668178 107.678808272787 5.07152330911474
vertex 1.09024946889191 102.692582403567 2.0
vertex 1.09024946889191 102.321191727213 2.92847669088526
endloop
endfacet
facet normal -0.732828108792941 -0.631748369649085 -0.252699347859635
outer loop
vertex 1.09024946889191 102.692582403567 2.0
vertex -4.26736707668178 107.678808272787 5.07152330911474
vertex -4.26736707668178 108.050198949141 4.14304661822948
endloop
endfacet
facet normal 2.31216359427378e-017 0.928476690885259 0.371390676354105
outer loop
vertex -4.26736707668178 108.050198949141 4.14304661822948
vertex 75.0 107.678808272787 5.07152330911474
vertex 75.0 108.050198949141 4.14304661822948
endloop
endfacet
facet normal 2.31216359427378e-017 0.928476690885259 0.371390676354105
outer loop
vertex 75.0 107.678808272787 5.07152330911474
vertex -4.26736707668178 108.050198949141 4.14304661822948
vertex -4.26736707668178 107.678808272787 5.07152330911474
endloop
endfacet
facet normal 1.58548360750202e-015 0.928476690885259 0.371390676354105
outer loop
vertex 75.0 107.678808272787 5.07152330911474
vertex 154.267367076682 108.050198949141 4.14304661822948
vertex 75.0 108.050198949141 4.14304661822948
endloop
endfacet
facet normal 1.58548360750202e-015 0.928476690885259 0.371390676354105
outer loop
vertex 154.267367076682 108.050198949141 4.14304661822948
vertex 75.0 107.678808272787 5.07152330911474
vertex 154.267367076682 107.678808272787 5.07152330911474
endloop
endfacet
facet normal 0.732828108792938 -0.631748369649088 -0.252699347859636
outer loop
vertex 148.909750531108 102.692582403567 2.00000000000001
vertex 154.267367076682 107.678808272787 5.07152330911474
vertex 148.909750531108 102.321191727213 2.92847669088527
endloop
endfacet
facet normal 0.732828108792938 -0.631748369649088 -0.252699347859636
outer loop
vertex 154.267367076682 107.678808272787 5.07152330911474
vertex 148.909750531108 102.692582403567 2.00000000000001
vertex 154.267367076682 108.050198949141 4.14304661822948
endloop
endfacet
facet normal -0.371390676354104 -5.38925283810131e-017 -0.928476690885259
outer loop
vertex -2.69258240356726 98.9097505311081 2.0
vertex -8.05019894914093 -4.26736707668174 4.14304661822948
vertex -8.05019894914095 104.267367076682 4.14304661822948
endloop
endfacet
facet normal -0.371390676354104 -5.38925283810131e-017 -0.928476690885259
outer loop
vertex -8.05019894914093 -4.26736707668174 4.14304661822948
vertex -2.69258240356726 98.9097505311081 2.0
vertex -2.69258240356724 1.09024946889194 2.0
endloop
endfacet
facet normal -0.928476690885259 -1.03732456017462e-016 0.371390676354104
outer loop
vertex -7.67880827278684 104.267367076682 5.07152330911474
vertex -8.05019894914093 -4.26736707668174 4.14304661822948
vertex -7.67880827278683 -4.26736707668174 5.07152330911474
endloop
endfacet
facet normal -0.928476690885259 -1.03732456017462e-016 0.371390676354104
outer loop
vertex -8.05019894914093 -4.26736707668174 4.14304661822948
vertex -7.67880827278684 104.267367076682 5.07152330911474
vertex -8.05019894914095 104.267367076682 4.14304661822948
endloop
endfacet
facet normal 0.631748369649086 0.73282810879294 -0.252699347859635
outer loop
vertex -8.05019894914095 104.267367076682 4.14304661822948
vertex -2.32119172721315 98.9097505311081 2.92847669088526
vertex -2.69258240356726 98.9097505311081 2.0
endloop
endfacet
facet normal 0.631748369649086 0.73282810879294 -0.252699347859635
outer loop
vertex -2.32119172721315 98.9097505311081 2.92847669088526
vertex -8.05019894914095 104.267367076682 4.14304661822948
vertex -7.67880827278684 104.267367076682 5.07152330911474
endloop
endfacet
facet normal 0.928476690885259 1.7732721408265e-016 -0.371390676354104
outer loop
vertex -2.69258240356726 98.9097505311081 2.0
vertex -2.32119172721313 1.09024946889194 2.92847669088526
vertex -2.69258240356724 1.09024946889194 2.0
endloop
endfacet
facet normal 0.928476690885259 1.7732721408265e-016 -0.371390676354104
outer loop
vertex -2.32119172721313 1.09024946889194 2.92847669088526
vertex -2.69258240356726 98.9097505311081 2.0
vertex -2.32119172721315 98.9097505311081 2.92847669088526
endloop
endfacet
facet normal 0.631748369649085 -0.732828108792941 -0.252699347859634
outer loop
vertex -2.32119172721313 1.09024946889194 2.92847669088526
vertex -8.05019894914093 -4.26736707668174 4.14304661822948
vertex -2.69258240356724 1.09024946889194 2.0
endloop
endfacet
facet normal 0.631748369649085 -0.732828108792941 -0.252699347859634
outer loop
vertex -8.05019894914093 -4.26736707668174 4.14304661822948
vertex -2.32119172721313 1.09024946889194 2.92847669088526
vertex -7.67880827278683 -4.26736707668174 5.07152330911474
endloop
endfacet
facet normal 0.371390676354105 5.45155633911982e-017 -0.928476690885259
outer loop
vertex 158.050198949141 104.267367076682 4.14304661822949
vertex 152.692582403567 1.09024946889195 2.0
vertex 152.692582403567 98.909750531108 2.0
endloop
endfacet
facet normal 0.371390676354105 5.45155633911982e-017 -0.928476690885259
outer loop
vertex 152.692582403567 1.09024946889195 2.0
vertex 158.050198949141 104.267367076682 4.14304661822949
vertex 158.050198949141 -4.26736707668172 4.14304661822948
endloop
endfacet
facet normal 0.928476690885259 -2.41238269808052e-017 0.371390676354105
outer loop
vertex 158.050198949141 104.267367076682 4.14304661822949
vertex 157.678808272787 -4.26736707668172 5.07152330911474
vertex 158.050198949141 -4.26736707668172 4.14304661822948
endloop
endfacet
facet normal 0.928476690885259 -2.41238269808052e-017 0.371390676354105
outer loop
vertex 157.678808272787 -4.26736707668172 5.07152330911474
vertex 158.050198949141 104.267367076682 4.14304661822949
vertex 157.678808272787 104.267367076682 5.07152330911474
endloop
endfacet
facet normal -0.631748369649085 -0.732828108792941 -0.252699347859635
outer loop
vertex 158.050198949141 -4.26736707668172 4.14304661822948
vertex 152.321191727213 1.09024946889195 2.92847669088526
vertex 152.692582403567 1.09024946889195 2.0
endloop
endfacet
facet normal -0.631748369649085 -0.732828108792941 -0.252699347859635
outer loop
vertex 152.321191727213 1.09024946889195 2.92847669088526
vertex 158.050198949141 -4.26736707668172 4.14304661822948
vertex 157.678808272787 -4.26736707668172 5.07152330911474
endloop
endfacet
facet normal -0.928476690885259 1.87364603559027e-017 -0.371390676354105
outer loop
vertex 152.321191727213 98.909750531108 2.92847669088526
vertex 152.692582403567 1.09024946889195 2.0
vertex 152.321191727213 1.09024946889195 2.92847669088526
endloop
endfacet
facet normal -0.928476690885259 1.87364603559027e-017 -0.371390676354105
outer loop
vertex 152.692582403567 1.09024946889195 2.0
vertex 152.321191727213 98.909750531108 2.92847669088526
vertex 152.692582403567 98.909750531108 2.0
endloop
endfacet
facet normal -0.631748369649085 0.732828108792941 -0.252699347859635
outer loop
vertex 152.321191727213 98.909750531108 2.92847669088526
vertex 158.050198949141 104.267367076682 4.14304661822949
vertex 152.692582403567 98.909750531108 2.0
endloop
endfacet
facet normal -0.631748369649085 0.732828108792941 -0.252699347859635
outer loop
vertex 158.050198949141 104.267367076682 4.14304661822949
vertex 152.321191727213 98.909750531108 2.92847669088526
vertex 157.678808272787 104.267367076682 5.07152330911474
endloop
endfacet
facet normal 2.05242791956068e-018 -0.371390676354105 -0.928476690885259
outer loop
vertex 1.09024946889192 -2.69258240356724 2.00000000000001
vertex 154.267367076682 -8.05019894914087 4.14304661822947
vertex -4.26736707668176 -8.05019894914089 4.14304661822948
endloop
endfacet
facet normal 2.05242791956068e-018 -0.371390676354105 -0.928476690885259
outer loop
vertex 154.267367076682 -8.05019894914087 4.14304661822947
vertex 1.09024946889192 -2.69258240356724 2.00000000000001
vertex 148.909750531108 -2.69258240356723 2.0
endloop
endfacet
facet normal 1.89927723815346e-016 -0.928476690885259 0.371390676354105
outer loop
vertex 154.267367076682 -7.67880827278676 5.07152330911473
vertex -4.26736707668176 -8.05019894914089 4.14304661822948
vertex 154.267367076682 -8.05019894914087 4.14304661822947
endloop
endfacet
facet normal 1.89927723815346e-016 -0.928476690885259 0.371390676354105
outer loop
vertex -4.26736707668176 -8.05019894914089 4.14304661822948
vertex 154.267367076682 -7.67880827278676 5.07152330911473
vertex -4.26736707668176 -7.67880827278679 5.07152330911474
endloop
endfacet
facet normal -0.732828108792939 0.631748369649087 -0.252699347859636
outer loop
vertex -4.26736707668176 -7.67880827278679 5.07152330911474
vertex 1.09024946889192 -2.69258240356724 2.00000000000001
vertex -4.26736707668176 -8.05019894914089 4.14304661822948
endloop
endfacet
facet normal -0.732828108792939 0.631748369649087 -0.252699347859636
outer loop
vertex 1.09024946889192 -2.69258240356724 2.00000000000001
vertex -4.26736707668176 -7.67880827278679 5.07152330911474
vertex 1.09024946889192 -2.32119172721313 2.92847669088526
endloop
endfacet
facet normal -4.38387763119155e-017 0.928476690885259 -0.371390676354105
outer loop
vertex 1.09024946889192 -2.69258240356724 2.00000000000001
vertex 148.909750531108 -2.32119172721312 2.92847669088526
vertex 148.909750531108 -2.69258240356723 2.0
endloop
endfacet
facet normal -4.38387763119155e-017 0.928476690885259 -0.371390676354105
outer loop
vertex 148.909750531108 -2.32119172721312 2.92847669088526
vertex 1.09024946889192 -2.69258240356724 2.00000000000001
vertex 1.09024946889192 -2.32119172721313 2.92847669088526
endloop
endfacet
facet normal 0.73282810879294 0.631748369649086 -0.252699347859636
outer loop
vertex 148.909750531108 -2.69258240356723 2.0
vertex 154.267367076682 -7.67880827278676 5.07152330911473
vertex 154.267367076682 -8.05019894914087 4.14304661822947
endloop
endfacet
facet normal 0.73282810879294 0.631748369649086 -0.252699347859636
outer loop
vertex 154.267367076682 -7.67880827278676 5.07152330911473
vertex 148.909750531108 -2.69258240356723 2.0
vertex 148.909750531108 -2.32119172721312 2.92847669088526
endloop
endfacet
facet normal 0.0 0.0 1.0
outer loop
vertex 40.0 103.0 1.5
vertex 30.0 105.0 1.5
vertex 30.0 103.0 1.5
endloop
endfacet
facet normal 0.0 0.0 1.0
outer loop
vertex 30.0 105.0 1.5
vertex 40.0 103.0 1.5
vertex 35.0 105.0 1.5
endloop
endfacet
facet normal 0.0 0.0 1.0
outer loop
vertex 35.0 105.0 1.5
vertex 40.0 103.0 1.5
vertex 40.0 105.0 1.5
endloop
endfacet
facet normal 4.51194637207664e-015 1.0 0.0
outer loop
vertex 30.0 105.0 1.5
vertex 35.0 105.0 0.0
vertex 30.0 105.0 0.0
endloop
endfacet
facet normal 4.51194637207664e-015 1.0 0.0
outer loop
vertex 35.0 105.0 0.0
vertex 30.0 105.0 1.5
vertex 35.0 105.0 1.5
endloop
endfacet
facet normal -1.0 2.81996648254771e-015 0.0
outer loop
vertex 30.0 105.0 1.5
vertex 30.0 103.0 0.0
vertex 30.0 103.0 1.5
endloop
endfacet
facet normal -1.0 2.81996648254771e-015 0.0
outer loop
vertex 30.0 103.0 0.0
vertex 30.0 105.0 1.5
vertex 30.0 105.0 0.0
endloop
endfacet
facet normal 0.0 -1.0 0.0
outer loop
vertex 40.0 103.0 1.5
vertex 30.0 103.0 0.0
vertex 40.0 103.0 0.0
endloop
endfacet
facet normal 0.0 -1.0 0.0
outer loop
vertex 30.0 103.0 0.0
vertex 40.0 103.0 1.5
vertex 30.0 103.0 1.5
endloop
endfacet
facet normal 1.0 -0.0 0.0
outer loop
vertex 40.0 105.0 0.0
vertex 40.0 103.0 1.5
vertex 40.0 103.0 0.0
endloop
endfacet
facet normal 1.0 -0.0 0.0
outer loop
vertex 40.0 103.0 1.5
vertex 40.0 105.0 0.0
vertex 40.0 105.0 1.5
endloop
endfacet
facet normal 0.0 1.0 0.0
outer loop
vertex 35.0 105.0 1.5
vertex 40.0 105.0 0.0
vertex 35.0 105.0 0.0
endloop
endfacet
facet normal 0.0 1.0 0.0
outer loop
vertex 40.0 105.0 0.0
vertex 35.0 105.0 1.5
vertex 40.0 105.0 1.5
endloop
endfacet
facet normal 0.0 0.0 1.0
outer loop
vertex 120.0 103.0 1.5
vertex 110.0 105.0 1.5
vertex 110.0 103.0 1.5
endloop
endfacet
facet normal 0.0 0.0 1.0
outer loop
vertex 110.0 105.0 1.5
vertex 120.0 103.0 1.5
vertex 115.0 105.0 1.5
endloop
endfacet
facet normal 0.0 0.0 1.0
outer loop
vertex 115.0 105.0 1.5
vertex 120.0 103.0 1.5
vertex 120.0 105.0 1.5
endloop
endfacet
facet normal 4.51194637207662e-015 1.0 0.0
outer loop
vertex 115.0 105.0 1.5
vertex 120.0 105.0 0.0
vertex 115.0 105.0 0.0
endloop
endfacet
facet normal 4.51194637207662e-015 1.0 0.0
outer loop
vertex 120.0 105.0 0.0
vertex 115.0 105.0 1.5
vertex 120.0 105.0 1.5
endloop
endfacet
facet normal 0.0 1.0 0.0
outer loop
vertex 110.0 105.0 1.5
vertex 115.0 105.0 0.0
vertex 110.0 105.0 0.0
endloop
endfacet
facet normal 0.0 1.0 0.0
outer loop
vertex 115.0 105.0 0.0
vertex 110.0 105.0 1.5
vertex 115.0 105.0 1.5
endloop
endfacet
facet normal -1.0 -0.0 -0.0
outer loop
vertex 110.0 105.0 1.5
vertex 110.0 103.0 0.0
vertex 110.0 103.0 1.5
endloop
endfacet
facet normal -1.0 -0.0 -0.0
outer loop
vertex 110.0 103.0 0.0
vertex 110.0 105.0 1.5
vertex 110.0 105.0 0.0
endloop
endfacet
facet normal 0.0 -1.0 0.0
outer loop
vertex 120.0 103.0 1.5
vertex 110.0 103.0 0.0
vertex 120.0 103.0 0.0
endloop
endfacet
facet normal 0.0 -1.0 0.0
outer loop
vertex 110.0 103.0 0.0
vertex 120.0 103.0 1.5
vertex 110.0 103.0 1.5
endloop
endfacet
facet normal 1.0 -0.0 0.0
outer loop
vertex 120.0 105.0 0.0
vertex 120.0 103.0 1.5
vertex 120.0 103.0 0.0
endloop
endfacet
facet normal 1.0 -0.0 0.0
outer loop
vertex 120.0 103.0 1.5
vertex 120.0 105.0 0.0
vertex 120.0 105.0 1.5
endloop
endfacet
facet normal -0.0 -0.0 1.0
outer loop
vertex 2.79411661979938e-016 45.0 2.0
vertex -2.0 55.0 2.0
vertex -2.0 45.0 2.0
endloop
endfacet
facet normal -0.0 -0.0 1.0
outer loop
vertex -2.0 55.0 2.0
vertex 2.79411661979938e-016 45.0 2.0
vertex -1.12023304037191e-015 55.0 2.0
endloop
endfacet
facet normal -0.0 -0.0 1.0
outer loop
vertex -1.12023304037191e-015 55.0 2.0
vertex 2.79411661979938e-016 45.0 2.0
vertex -2.19410414002445e-016 50.0 2.0
endloop
endfacet
facet normal 1.0 9.97644151964766e-017 -0.0
outer loop
vertex -2.19410414002445e-016 50.0 0.0
vertex 2.79411661979938e-016 45.0 2.0
vertex 2.79411661979938e-016 45.0 0.0
endloop
endfacet
facet normal 1.0 9.97644151964766e-017 -0.0
outer loop
vertex 2.79411661979938e-016 45.0 2.0
vertex -2.19410414002445e-016 50.0 0.0
vertex -2.19410414002445e-016 50.0 2.0
endloop
endfacet
facet normal 1.0 1.80164525273894e-016 -0.0
outer loop
vertex -1.12023304037191e-015 55.0 0.0
vertex -2.19410414002445e-016 50.0 2.0
vertex -2.19410414002445e-016 50.0 0.0
endloop
endfacet
facet normal 1.0 1.80164525273894e-016 -0.0
outer loop
vertex -2.19410414002445e-016 50.0 2.0
vertex -1.12023304037191e-015 55.0 0.0
vertex -1.12023304037191e-015 55.0 2.0
endloop
endfacet
facet normal -0.0 1.0 -0.0
outer loop
vertex -2.0 55.0 2.0
vertex -1.12023304037191e-015 55.0 0.0
vertex -2.0 55.0 0.0
endloop
endfacet
facet normal -0.0 1.0 -0.0
outer loop
vertex -1.12023304037191e-015 55.0 0.0
vertex -2.0 55.0 2.0
vertex -1.12023304037191e-015 55.0 2.0
endloop
endfacet
facet normal -1.0 -0.0 -0.0
outer loop
vertex -2.0 55.0 2.0
vertex -2.0 45.0 0.0
vertex -2.0 45.0 2.0
endloop
endfacet
facet normal -1.0 -0.0 -0.0
outer loop
vertex -2.0 45.0 0.0
vertex -2.0 55.0 2.0
vertex -2.0 55.0 0.0
endloop
endfacet
facet normal 0.0 -1.0 0.0
outer loop
vertex 2.79411661979938e-016 45.0 2.0
vertex -2.0 45.0 0.0
vertex 2.79411661979938e-016 45.0 0.0
endloop
endfacet
facet normal 0.0 -1.0 0.0
outer loop
vertex -2.0 45.0 0.0
vertex 2.79411661979938e-016 45.0 2.0
vertex -2.0 45.0 2.0
endloop
endfacet
facet normal -0.0 -0.0 1.0
outer loop
vertex 152.0 45.0 2.0
vertex 150.0 50.0 2.0
vertex 150.0 45.0 2.0
endloop
endfacet
facet normal -0.0 -0.0 1.0
outer loop
vertex 150.0 50.0 2.0
vertex 152.0 45.0 2.0
vertex 150.0 55.0 2.0
endloop
endfacet
facet normal -0.0 -0.0 1.0
outer loop
vertex 150.0 55.0 2.0
vertex 152.0 45.0 2.0
vertex 152.0 55.0 2.0
endloop
endfacet
facet normal -1.0 0.0 0.0
outer loop
vertex 150.0 55.0 2.0
vertex 150.0 50.0 0.0
vertex 150.0 50.0 2.0
endloop
endfacet
facet normal -1.0 0.0 0.0
outer loop
vertex 150.0 50.0 0.0
vertex 150.0 55.0 2.0
vertex 150.0 55.0 0.0
endloop
endfacet
facet normal -1.0 0.0 0.0
outer loop
vertex 150.0 50.0 2.0
vertex 150.0 45.0 0.0
vertex 150.0 45.0 2.0
endloop
endfacet
facet normal -1.0 0.0 0.0
outer loop
vertex 150.0 45.0 0.0
vertex 150.0 50.0 2.0
vertex 150.0 50.0 0.0
endloop
endfacet
facet normal 0.0 -1.0 0.0
outer loop
vertex 152.0 45.0 2.0
vertex 150.0 45.0 0.0
vertex 152.0 45.0 0.0
endloop
endfacet
facet normal 0.0 -1.0 0.0
outer loop
vertex 150.0 45.0 0.0
vertex 152.0 45.0 2.0
vertex 150.0 45.0 2.0
endloop
endfacet
facet normal 1.0 -0.0 0.0
outer loop
vertex 152.0 55.0 0.0
vertex 152.0 45.0 2.0
vertex 152.0 45.0 0.0
endloop
endfacet
facet normal 1.0 -0.0 0.0
outer loop
vertex 152.0 45.0 2.0
vertex 152.0 55.0 0.0
vertex 152.0 55.0 2.0
endloop
endfacet
facet normal -0.0 1.0 -0.0
outer loop
vertex 150.0 55.0 2.0
vertex 152.0 55.0 0.0
vertex 150.0 55.0 0.0
endloop
endfacet
facet normal -0.0 1.0 -0.0
outer loop
vertex 152.0 55.0 0.0
vertex 150.0 55.0 2.0
vertex 152.0 55.0 2.0
endloop
endfacet
facet normal -0.0 -0.0 1.0
outer loop
vertex 75.0 -0.0178417173918033 2.0
vertex 70.0 1.9821582826082 2.0
vertex 70.0 -0.0178417173918037 2.0
endloop
endfacet
facet normal -0.0 -0.0 1.0
outer loop
vertex 70.0 1.9821582826082 2.0
vertex 75.0 -0.0178417173918033 2.0
vertex 80.0 1.9821582826082 2.0
endloop
endfacet
facet normal -0.0 -0.0 1.0
outer loop
vertex 80.0 1.9821582826082 2.0
vertex 75.0 -0.0178417173918033 2.0
vertex 80.0 -0.0178417173918033 2.0
endloop
endfacet
facet normal 7.04991620636974e-017 -1.0 0.0
outer loop
vertex 75.0 -0.0178417173918033 2.0
vertex 70.0 -0.0178417173918037 0.0
vertex 75.0 -0.0178417173918033 0.0
endloop
endfacet
facet normal 7.04991620636974e-017 -1.0 0.0
outer loop
vertex 70.0 -0.0178417173918037 0.0
vertex 75.0 -0.0178417173918033 2.0
vertex 70.0 -0.0178417173918037 2.0
endloop
endfacet
facet normal 0.0 -1.0 0.0
outer loop
vertex 80.0 -0.0178417173918033 2.0
vertex 75.0 -0.0178417173918033 0.0
vertex 80.0 -0.0178417173918033 0.0
endloop
endfacet
facet normal 0.0 -1.0 0.0
outer loop
vertex 75.0 -0.0178417173918033 0.0
vertex 80.0 -0.0178417173918033 2.0
vertex 75.0 -0.0178417173918033 2.0
endloop
endfacet
facet normal 1.0 -0.0 -0.0
outer loop
vertex 80.0 1.9821582826082 0.0
vertex 80.0 -0.0178417173918033 2.0
vertex 80.0 -0.0178417173918033 0.0
endloop
endfacet
facet normal 1.0 -0.0 -0.0
outer loop
vertex 80.0 -0.0178417173918033 2.0
vertex 80.0 1.9821582826082 0.0
vertex 80.0 1.9821582826082 2.0
endloop
endfacet
facet normal 0.0 1.0 0.0
outer loop
vertex 70.0 1.9821582826082 2.0
vertex 80.0 1.9821582826082 0.0
vertex 70.0 1.9821582826082 0.0
endloop
endfacet
facet normal 0.0 1.0 0.0
outer loop
vertex 80.0 1.9821582826082 0.0
vertex 70.0 1.9821582826082 2.0
vertex 80.0 1.9821582826082 2.0
endloop
endfacet
facet normal -1.0 0.0 0.0
outer loop
vertex 70.0 1.9821582826082 2.0
vertex 70.0 -0.0178417173918037 0.0
vertex 70.0 -0.0178417173918037 2.0
endloop
endfacet
facet normal -1.0 0.0 0.0
outer loop
vertex 70.0 -0.0178417173918037 0.0
vertex 70.0 1.9821582826082 2.0
vertex 70.0 1.9821582826082 0.0
endloop
endfacet
endsolid Photo frame modern
